REM DISCID BA0FE50D
FILE "1.dummy" WAVE
  TRACK 01 AUDIO
    INDEX 01 00:00:00
  TRACK 02 AUDIO
    INDEX 00 03:57:70
    INDEX 01 03:58:08
  TRACK 03 AUDIO
    INDEX 00 07:37:50
    INDEX 01 07:37:55
  TRACK 04 AUDIO
    INDEX 00 11:01:64
    INDEX 01 11:02:39
  TRACK 05 AUDIO
    INDEX 01 14:32:67
  TRACK 06 AUDIO
    INDEX 00 18:09:37
    INDEX 01 18:10:02
  TRACK 07 AUDIO
    INDEX 00 21:23:29
    INDEX 01 21:23:48
  TRACK 08 AUDIO
    INDEX 00 26:19:05
    INDEX 01 26:20:08
  TRACK 09 AUDIO
    INDEX 00 30:07:64
    INDEX 01 30:07:73
  TRACK 10 AUDIO
    INDEX 00 33:47:23
    INDEX 01 33:47:49
  TRACK 11 AUDIO
    INDEX 00 37:20:03
    INDEX 01 37:21:18
  TRACK 12 AUDIO
    INDEX 00 44:45:71
    INDEX 01 44:47:60
